<svg t="1626273147594" class="icon" viewBox="0 0 1024 1024" version="1.1" xmlns="http://www.w3.org/2000/svg" p-id="10530" width="200" height="200"><path d="M995.635 510.054c-1.194-1.945-79.36-128.716-215.21-217.702l106.666-106.7c13.415-13.415 13.415-35.363 0-48.777s-35.362-13.415-48.776 0L718.473 256.717C657.954 227.02 588.868 206.882 512 206.882c-297.984 0-481.826 300.135-483.635 303.138l-3.96 6.588 4.438 6.246c5.393 7.578 88.61 122.437 217.088 206.37L136.875 838.282c-13.415 13.414-13.415 35.362 0 48.776s35.362 13.414 48.776 0l122.334-122.334c61.372 30.89 130.048 52.292 203.98 52.292 16.658 0 33.554-1.092 50.245-3.276a441.173 441.173 0 0 0 84.48-19.764l19.047-6.724a789.504 789.504 0 0 0 37.444-14.78c15.36-5.051 22.63-21.947 17.203-40.14-5.086-17.17-21.197-31.71-43.588-25.566l-7.202 3.038-0.035-0.103-1.297 0.615c-11.707 4.778-24.064 9.386-37.512 13.926l-5.905 2.014c-17.203 5.7-34.065 10.718-50.244 15.599l-4.677 1.4a322.116 322.116 0 0 1-60.313 5.836c-50.45 0-101.308-11.4-152.167-33.86l76.937-76.937a162.202 162.202 0 0 0 77.482 20.037c90.59 0 161.52-70.964 161.52-161.52 0-27.989-7.851-53.964-20.549-76.97l77.892-77.892c29.014 17.988 58.027 39.15 87.075 64.41 35.293 32.426 64.614 67.31 86.425 94.446 2.116 5.12 5.188 9.353 8.021 13.176-2.662 3.345-6.075 6.69-9.66 10.308l-16.076 16.691c-24.337 25.43-49.493 51.712-80.145 77.278-14.439 16.077-8.84 37 4.13 49.357 14.131 13.448 32.973 14.745 44.066 3.755 86.596-72.773 138.377-145.545 140.561-148.617l4.403-6.212-3.925-6.554z m-567.296 36.83a94.754 94.754 0 0 1-13.312-47.855 95.88 95.88 0 0 1 95.778-95.744c17.51 0 33.69 5.052 47.821 13.278l-130.32 130.321z m82.466 47.923c-9.864 0-19.183-1.911-28.126-4.71l119.194-119.194c2.765 8.943 4.71 18.262 4.71 28.126 0 51.917-43.86 95.778-95.778 95.778z m96.666-227.054a161.86 161.86 0 0 0-96.666-32.393c-89.975 0-160.426 70.963-160.426 161.519 0 36.523 11.946 69.53 31.675 96.324l-88.064 88.064a662.255 662.255 0 0 1-84.616-62.771c-32.836-28.023-67.14-58.163-94.584-92.365-2.15-2.56-3.993-4.983-5.768-7.27a191.83 191.83 0 0 0-4.437-5.666l2.73-3.755c1.81-2.423 3.55-4.779 4.472-6.349a599.586 599.586 0 0 1 87.176-95.402c99.874-90.18 200.738-134.008 308.258-134.008 54.17 0 107.213 11.503 159.813 34.475l-59.597 59.597z" p-id="10531"></path></svg>
